<?xml version="1.0" encoding="utf-8"?><svg viewBox="0 0 134 113" xmlns="http://www.w3.org/2000/svg" xmlns:xlink="http://www.w3.org/1999/xlink"><style>:root>svg{display:none}:root>svg:target{display:block}</style><svg fill="none" viewBox="0 0 91 101" id="asm" xmlns="http://www.w3.org/2000/svg"><path fill-rule="evenodd" clip-rule="evenodd" d="M9.656 8.875A8.097 8.097 0 0117.75.781h41.625a3.469 3.469 0 110 6.938H17.75a1.156 1.156 0 00-1.156 1.156V50.5a3.47 3.47 0 01-6.938 0V8.875zm77.469 19.656A3.47 3.47 0 0190.594 32v60.125a8.093 8.093 0 01-8.094 8.094H22.375a3.469 3.469 0 010-6.938H82.5a1.156 1.156 0 001.156-1.156V32a3.469 3.469 0 013.469-3.469z" fill="#6C757D"/><path fill-rule="evenodd" clip-rule="evenodd" d="M25.844 69a8.097 8.097 0 018.093-8.094h9.25a3.469 3.469 0 110 6.938h-9.25a1.156 1.156 0 100 2.312h4.626a8.093 8.093 0 110 16.188h-9.25a3.469 3.469 0 010-6.938h9.25a1.156 1.156 0 000-2.312h-4.626A8.094 8.094 0 0125.845 69zM.406 69A8.097 8.097 0 018.5 60.906h4.625A8.097 8.097 0 0121.219 69v13.875a3.47 3.47 0 01-6.938 0v-5.781H7.344v5.781a3.469 3.469 0 11-6.938 0V69zm6.938 1.156h6.937V69a1.157 1.157 0 00-1.156-1.156H8.5A1.156 1.156 0 007.344 69v1.156zm46.31-9.07a3.469 3.469 0 013.871 1.208l4.163 5.55 4.162-5.55a3.468 3.468 0 016.244 2.081v18.5a3.469 3.469 0 01-6.938 0v-8.094l-.694.925a3.469 3.469 0 01-5.55 0l-.693-.925v8.094a3.47 3.47 0 01-6.938 0v-18.5a3.47 3.47 0 012.373-3.288zm8.172-59.292a3.468 3.468 0 00-5.92 2.456v23.125A8.094 8.094 0 0064 35.47h23.125a3.468 3.468 0 002.451-5.92l-27.75-27.75v-.005z" fill="#6C757D"/></svg><svg fill="none" viewBox="0 0 90 98" id="bash" xmlns="http://www.w3.org/2000/svg"><path fill-rule="evenodd" clip-rule="evenodd" d="M44.971 97.071c-2.396 0-4.794-.556-6.99-1.671-4.902-2.49-11.301-6.402-17.491-10.187-4.357-2.664-8.471-5.181-11.698-6.972A15.48 15.48 0 01.833 64.72V31.719a15.42 15.42 0 018.169-13.632c8.244-4.392 21.458-11.558 28.439-15.48 4.66-2.615 10.452-2.615 15.114 0 7.897 4.432 22.898 13.39 31.473 18.8 3.217 2.024 5.139 5.511 5.139 9.33v34.93c0 5.3-1.897 8.94-5.638 10.81-2.085 1.173-5.804 3.48-10.11 6.155-6.696 4.156-15.03 9.33-21.12 12.599a15.507 15.507 0 01-7.328 1.841zM39.603 6.457c-7.005 3.935-20.26 11.125-28.523 15.529a11.003 11.003 0 00-5.83 9.732v33.004c0 4.005 2.18 7.707 5.689 9.657 3.308 1.837 7.46 4.374 11.856 7.064 6.117 3.739 12.442 7.608 17.188 10.017a11.068 11.068 0 0010.227-.124C56.178 88.132 64.447 83 71.09 78.875c4.35-2.701 8.107-5.033 10.37-6.303 2.925-1.464 3.289-4.456 3.289-6.905V30.735c0-2.29-1.15-4.379-3.074-5.591-8.529-5.377-23.437-14.281-31.281-18.685a10.961 10.961 0 00-10.792-.002z" fill="#6C757D"/><path fill-rule="evenodd" clip-rule="evenodd" d="M42.74 86.986l-.125-29.676a15.46 15.46 0 018.173-13.7L77.31 29.44c4.412-2.358 9.748.84 9.748 5.843v32.53a6.626 6.626 0 01-3.15 5.64L52.843 92.594c-4.404 2.716-10.079-.437-10.101-5.61z" fill="#6C757D"/><path fill-rule="evenodd" clip-rule="evenodd" d="M55.598 53.022c.271-.14.497.03.501.389l.029 2.914c1.219-.483 2.279-.613 3.24-.39.21.053.3.337.216.675l-.643 2.582a1.117 1.117 0 01-.291.514.747.747 0 01-.17.126.389.389 0 01-.252.042c-.44-.1-1.482-.327-3.12.504-1.718.872-2.321 2.365-2.31 3.474.015 1.327.695 1.729 3.04 1.77 3.127.051 4.477 1.42 4.51 4.565.035 3.096-1.619 6.415-4.143 8.45l.055 2.888c.003.346-.22.746-.497.883l-1.711.983c-.272.139-.497-.031-.501-.38l-.029-2.84c-1.466.61-2.946.755-3.893.375-.181-.07-.259-.335-.186-.636l.619-2.608a1.09 1.09 0 01.304-.543.68.68 0 01.16-.117.339.339 0 01.273-.028c1.02.342 2.325.18 3.582-.456 1.594-.805 2.663-2.433 2.646-4.05-.016-1.466-.809-2.073-2.741-2.089-2.458.005-4.75-.477-4.788-4.096-.03-2.981 1.52-6.08 3.973-8.04l-.028-2.913c-.003-.358.216-.751.496-.895l1.659-1.053zM74.207 71.976l-8.18 4.825a.363.363 0 01-.538-.316v-2.764c0-.25.135-.48.353-.603l8.18-4.826a.366.366 0 01.543.32v2.757a.694.694 0 01-.358.607z" fill="#EDEDED"/></svg><svg fill="none" viewBox="0 0 96 109" id="c" xmlns="http://www.w3.org/2000/svg"><path d="M91.674 24.065L52.35 1.169a8.682 8.682 0 00-8.698 0L4.326 24.065a8.7 8.7 0 00-3.17 3.198A8.766 8.766 0 000 31.627v45.746a8.766 8.766 0 001.156 4.364 8.7 8.7 0 003.17 3.198l39.325 22.896a8.678 8.678 0 008.698 0l39.325-22.896a8.7 8.7 0 003.17-3.198A8.766 8.766 0 0096 77.373V31.627a8.766 8.766 0 00-1.156-4.364 8.7 8.7 0 00-3.17-3.198zM47.237 85.098c-19.779 0-29.934-12.658-29.934-30.249S28.87 23.716 48.07 23.716c21.421 0 27.39 14.194 27.76 20.941H58.617c-1.064-4.793-4.002-8.12-10.873-8.12-8.05 0-12.607 6.515-12.607 17.893 0 12.495 4.835 18.196 12.538 18.196 2.41.134 4.794-.557 6.764-1.96a10.749 10.749 0 004.085-5.765h17.28c-2.197 9.657-9.646 20.197-28.568 20.197z" fill="#6C757D"/></svg><svg fill="none" viewBox="0 0 103 113" id="c++" xmlns="http://www.w3.org/2000/svg"><path d="M97.693 24.676L56.564 1.502a10.395 10.395 0 00-10.113 0L5.323 24.676C2.175 26.446.219 29.765.219 33.322V79.67c0 3.558 1.956 6.877 5.104 8.646L46.45 111.49c1.565.88 3.31 1.32 5.057 1.32 1.746 0 3.492-.44 5.056-1.32l41.129-23.174c3.148-1.77 5.104-5.088 5.104-8.646V33.322c0-3.558-1.956-6.876-5.104-8.646zM51.508 85.877c-16.162 0-29.308-13.179-29.308-29.38 0-16.202 13.146-29.382 29.308-29.382 9.235 0 17.764 4.295 23.307 11.611L64.11 44.933a17.06 17.06 0 00-12.603-5.576c-9.426 0-17.097 7.69-17.097 17.14 0 9.449 7.67 17.138 17.097 17.138A17.06 17.06 0 0064.11 68.06l10.704 6.207c-5.543 7.317-14.072 11.611-23.307 11.611zm29.308-26.932H75.93v4.897h-4.885v-4.897h-4.884v-4.897h4.884V49.15h4.885v4.897h4.885v4.897zm17.096 0h-4.885v4.897h-4.884v-4.897h-4.885v-4.897h4.885V49.15h4.885v4.897h4.884v4.897z" fill="#6C757D"/></svg><svg fill="none" viewBox="0 0 93 106" id="c+++" xmlns="http://www.w3.org/2000/svg"><path d="M88.81 23.402L50.712 1.136a8.386 8.386 0 00-8.426 0L4.191 23.402a8.446 8.446 0 00-3.071 3.11A8.55 8.55 0 000 30.758v44.486a8.55 8.55 0 001.12 4.244 8.446 8.446 0 003.07 3.11l38.097 22.267A8.39 8.39 0 0046.5 106a8.39 8.39 0 004.213-1.136l38.096-22.266a8.446 8.446 0 003.071-3.11A8.55 8.55 0 0093 75.242V30.757a8.55 8.55 0 00-1.12-4.244 8.446 8.446 0 00-3.07-3.11zM45.76 82.756c-19.16 0-28.998-12.31-28.998-29.417 0-17.106 11.205-30.276 29.805-30.276 20.752 0 26.533 13.803 26.892 20.365H56.786c-1.03-4.661-3.877-7.897-10.532-7.897-7.799 0-12.214 6.336-12.214 17.401 0 12.151 4.684 17.695 12.146 17.695 2.335.13 4.644-.541 6.553-1.905a10.451 10.451 0 003.957-5.607h16.74c-2.129 9.39-9.344 19.641-27.676 19.641zm39.038-31.68h-2.24l-.673 2.784H83.7v2.512h-2.376l-.963 4.05H78.12l.986-4.05h-2.487l-1.054 3.96h-2.24l.985-4.05h-1.748v-2.513h2.376l.627-2.783h-1.904v-2.512h2.51l.918-3.733h2.241l-.83 3.733h2.488l.897-3.733h2.24l-.918 3.733h1.614l-.023 2.603z" fill="#6C757D"/></svg><svg fill="none" viewBox="0 0 104 104" id="delphi" xmlns="http://www.w3.org/2000/svg"><path d="M52 .344C23.518.344.344 23.518.344 52S23.518 103.656 52 103.656 103.656 80.482 103.656 52 80.482.344 52 .344zm0 3.562c26.52 0 48.094 21.575 48.094 48.094 0 26.52-21.575 48.094-48.094 48.094-26.52 0-48.094-21.575-48.094-48.094C3.906 25.48 25.481 3.906 52 3.906zm-3.67 10.688c-.79 0-1.486.521-1.709 1.28l-4.606 15.662c-.281.072-.567.133-.845.213l1.906-13.339c.093-.648-.18-1.3-.706-1.687a1.785 1.785 0 00-1.82-.174c-.3.143-8.94 4.463-8.94 4.463a1.781 1.781 0 00-.978 1.733l1.023 13.018-2.509-10.882a1.786 1.786 0 00-1.252-1.315 1.781 1.781 0 00-1.753.47l-7.473 7.612a1.78 1.78 0 00-.31 2.066l4.238 8.176-2.728-3.458a1.8 1.8 0 00-1.586-.668 1.78 1.78 0 00-1.413.984l-3.876 7.87a1.777 1.777 0 00.554 2.226l8.304 6.02c-.018.193-.014.398-.028.594l-5.702-3.225a1.779 1.779 0 00-2.647 1.36l-.651 6.064c-.09.841.421 1.631 1.228 1.89l5.427 1.729-2.752-.554a1.813 1.813 0 00-1.732.623 1.786 1.786 0 00-.261 1.823l2.275 5.344a1.78 1.78 0 001.639 1.082h.035l1.562-.028c-.057.085-.118.168-.16.264a1.784 1.784 0 00.132 1.674l2.797 4.39a1.787 1.787 0 002.327.623l4.314-2.244c.073.073.15.14.223.212l-4.457 10.44a1.782 1.782 0 002.195 2.39c.052-.017 5.24-1.69 10.135-1.69 7.604 0 11.757 1.635 11.79 1.649a1.783 1.783 0 002.22-.762l1.972-3.423 4.186 8.656a1.78 1.78 0 001.604 1.001c.226 0 .454-.037.675-.128 2.91-1.192 8.015-3.863 9.522-8.34a1.785 1.785 0 00-.039-1.245c-.942-2.282-4.378-10.047-9.045-14.128-1.222-1.069-2.065-1.673-2.822-2.22-1.07-.776-1.993-1.445-3.632-3.17-1.116-1.18-2.15-2.043-3.148-2.706l24.489-5.142a1.78 1.78 0 001.148-.8c.258-.411.333-.913.212-1.381l-4.185-16.393a1.79 1.79 0 00-1.082-1.225 1.79 1.79 0 00-1.625.174l-1.113.738-.199-.23a21.61 21.61 0 00-1.84-1.68l16.598-14.114a1.78 1.78 0 00-.543-3.027l-13.696-5.024a1.772 1.772 0 00-2.063.637L55.629 31.456c-.426-.103-.848-.218-1.277-.302l8.092-13.857a1.782 1.782 0 00-1.534-2.679l-12.577-.024h-.003zm1.332 3.566l8.145.017-7.31 12.521c-.461-.025-.923-.073-1.381-.073-1.076 0-2.133.07-3.173.184l3.72-12.65zm19.583.355l9.557 3.506-15.001 12.755a28.862 28.862 0 00-4.582-2.217l10.026-14.044zm-30.177 2.748l-1.704 11.909a27.24 27.24 0 00-2.248 1.155l-.838-10.667 4.79-2.397zm-12.663 7.584l2.418 10.49a26.64 26.64 0 00-2.168 2.647l-4.54-8.764 4.29-4.373zm22.71 5.34c6.207 0 12.757 2.612 16.735 6.586L40.33 57.598a1.78 1.78 0 00-.636 2.223l1.635 3.6a1.771 1.771 0 001.983 1.01l.386-.08 2.818 5.82a21.258 21.258 0 00-3.914-.359c-5.965 0-9.355 2.266-10.823 3.573-4.143-4.31-6.497-9.964-6.499-15.822 0-13.108 10.47-23.376 23.835-23.376zm43.398 2.018c-.23-.015-.47.015-.703.098l-3.364 1.165a1.777 1.777 0 00-1.1 2.265 1.774 1.774 0 002.262 1.1l3.368-1.17a1.774 1.774 0 001.1-2.26 1.775 1.775 0 00-1.563-1.198zM48.437 37.75c-2.641 0-5.21.519-7.629 1.541a1.78 1.78 0 101.388 3.28 15.943 15.943 0 016.242-1.258 1.78 1.78 0 001.78-1.782 1.78 1.78 0 00-1.78-1.781zm21.424 4.645l3.107 12.169-28.99 6.085-.415-.915 26.298-17.34zm-33.777.368a1.787 1.787 0 00-1.27.501c-3.851 3.725-5.97 8.723-5.97 14.08 0 2.994.658 5.869 1.958 8.544.307.634.94 1.002 1.6 1.002a1.78 1.78 0 001.6-2.557 15.897 15.897 0 01-1.596-6.99c0-4.381 1.734-8.476 4.885-11.522a1.783 1.783 0 00.042-2.518 1.77 1.77 0 00-1.25-.54zm-17.263.09l4.463 5.661a26.346 26.346 0 00-.734 2.453l-5.695-4.126 1.966-3.987zm75.355 1.91l-3.535.453a1.783 1.783 0 00.452 3.535l3.535-.453a1.783 1.783 0 001.541-1.993c-.123-.974-1.01-1.652-1.993-1.541zm-2.981 8.49c-1.016-.086-1.84.658-1.914 1.642-.075.98.66 1.835 1.642 1.91l3.549.274a1.779 1.779 0 001.913-1.639 1.783 1.783 0 00-1.642-1.913l-3.548-.275zm-74.469 3.412l5.104 2.884c.02.25.017.5.042.748l-5.354-1.708.208-1.924zm72.69 4.513a1.78 1.78 0 00-.282 3.479l3.42.995a1.785 1.785 0 002.21-1.21 1.784 1.784 0 00-1.214-2.21l-3.424-.995a1.786 1.786 0 00-.71-.06zm-41.354 4.007c1.022.5 2.172 1.343 3.534 2.784 1.867 1.966 3.013 2.795 4.147 3.618.68.488 1.45 1.044 2.547 2 3.748 3.278 6.775 9.748 7.814 12.142-1.092 2.26-3.842 3.953-5.737 4.898L48.062 65.185zM19.336 66.88l4.533.911.059.143-4.109.073-.483-1.127zm67.426 1.75a1.783 1.783 0 00-.998 3.346l3.148 1.674a1.774 1.774 0 002.407-.734 1.781 1.781 0 00-.733-2.411L87.44 68.83a1.785 1.785 0 00-.679-.201zm-44.159 4.745c2.761 0 4.718.555 5.876 1.016l.035-.09 3.343 6.912-2.463 4.272c-1.993-.568-5.935-1.422-11.644-1.422-2.752 0-5.519.453-7.619.915l3.597-8.44a.857.857 0 01.157-.255c.682-.682 3.328-2.908 8.718-2.908zm-15.495.024c.032.043.075.08.108.122l-2.074 1.082-.487-.769 2.453-.435zm54.836 1.907a1.782 1.782 0 00-.978 3.142l2.735 2.282a1.786 1.786 0 002.508-.23 1.782 1.782 0 00-.226-2.508l-2.735-2.283a1.787 1.787 0 00-1.304-.403z" fill="#6C757D"/></svg><svg fill="none" viewBox="0 0 24 14" id="down" xmlns="http://www.w3.org/2000/svg"><path d="M23.263 2.568L15.507 11.7a4.6 4.6 0 01-7.014 0L.737 2.571A1.151 1.151 0 012.492 1.08l7.755 9.13a2.374 2.374 0 003.506 0l7.755-9.13a1.151 1.151 0 011.755 1.488z" fill="#6C757D"/></svg><svg fill="none" viewBox="0 0 103 99" id="github" xmlns="http://www.w3.org/2000/svg"><path d="M34.451 79.715c0 .41-.478.737-1.08.737-.685.061-1.163-.266-1.163-.737 0-.41.478-.737 1.08-.737.623-.062 1.163.266 1.163.737zm-6.458-.922c-.146.41.27.88.893 1.003.54.205 1.163 0 1.287-.409.125-.41-.27-.88-.893-1.064-.54-.144-1.142.061-1.287.47zm9.178-.348c-.602.144-1.017.533-.955 1.004.062.409.602.675 1.225.532.602-.143 1.018-.532.956-.942-.063-.389-.623-.655-1.226-.594zM50.836 0C22.033 0 0 21.556 0 49.95c0 22.702 14.495 42.13 35.199 48.967 2.658.47 3.592-1.147 3.592-2.477 0-1.27-.062-8.27-.062-12.57 0 0-14.537 3.071-17.59-6.1 0 0-2.366-5.957-5.772-7.492 0 0-4.756-3.215.332-3.153 0 0 5.171.41 8.016 5.281 4.548 7.902 12.169 5.63 15.138 4.279.478-3.276 1.828-5.548 3.323-6.899-11.608-1.27-23.32-2.927-23.32-22.62 0-5.63 1.578-8.455 4.9-12.058-.54-1.33-2.305-6.817.54-13.9 4.34-1.33 14.329 5.527 14.329 5.527 4.153-1.146 8.618-1.74 13.041-1.74s8.888.594 13.041 1.74c0 0 9.989-6.878 14.329-5.527 2.845 7.104 1.08 12.57.54 13.9 3.322 3.623 5.358 6.448 5.358 12.058 0 19.754-12.232 21.33-23.84 22.62 1.91 1.617 3.53 4.688 3.53 9.499 0 6.898-.062 15.435-.062 17.114 0 1.33.955 2.948 3.592 2.477C88.921 92.079 103 72.652 103 49.95 103 21.556 79.638 0 50.836 0zM20.185 70.605c-.27.205-.208.675.145 1.064.332.328.81.471 1.08.205.27-.204.207-.675-.145-1.064-.333-.328-.81-.471-1.08-.205zm-2.243-1.658c-.145.266.062.593.478.798.332.205.747.143.892-.143.146-.266-.062-.594-.477-.799-.415-.122-.748-.06-.893.144zm6.728 7.288c-.332.266-.208.88.27 1.269.478.47 1.08.532 1.35.204.27-.266.145-.88-.27-1.269-.457-.47-1.08-.532-1.35-.204zm-2.367-3.01c-.332.205-.332.737 0 1.208.332.47.893.676 1.163.47.332-.265.332-.797 0-1.268-.291-.471-.83-.676-1.163-.41z" fill="#6C757D"/></svg><svg fill="none" viewBox="0 0 86 101" id="html5" xmlns="http://www.w3.org/2000/svg"><path d="M0 .188l7.816 88.9 35.072 11.724 35.296-11.724L86 .188H0zm69.024 28.727H27.86l.919 11.096h39.327L65.06 73.343l-21.926 6.064v.068h-.246l-22.105-6.132-1.343-17.026h10.682l.784 8.558 11.982 3.257 12.027-3.257 1.343-13.97H18.88L16.013 18.2h53.996l-.985 10.714z" fill="#6C757D"/></svg><svg fill="none" viewBox="0 0 34 34" id="instagram" xmlns="http://www.w3.org/2000/svg"><path d="M10.16.28C4.713.28.28 4.713.28 10.16v13.68c0 5.447 4.433 9.88 9.88 9.88h13.68c5.447 0 9.88-4.433 9.88-9.88V10.16c0-5.447-4.433-9.88-9.88-9.88H10.16zm0 1.52h13.68a8.349 8.349 0 018.36 8.36v13.68a8.349 8.349 0 01-8.36 8.36H10.16a8.349 8.349 0 01-8.36-8.36V10.16a8.349 8.349 0 018.36-8.36zm15.96 4.56a1.52 1.52 0 100 3.04 1.52 1.52 0 000-3.04zM17 8.64c-4.608 0-8.36 3.752-8.36 8.36s3.752 8.36 8.36 8.36 8.36-3.752 8.36-8.36S21.608 8.64 17 8.64zm0 1.52A6.829 6.829 0 0123.84 17 6.829 6.829 0 0117 23.84 6.829 6.829 0 0110.16 17 6.829 6.829 0 0117 10.16z" fill="#fff"/></svg><svg fill="none" viewBox="0 0 84 106" id="java" xmlns="http://www.w3.org/2000/svg"><path d="M48.758 0c5.83 13.49-20.902 21.821-23.387 33.059-2.277 10.327 15.884 22.326 15.9 22.326-2.757-4.273-4.786-7.793-7.552-14.442C29.039 29.697 62.214 19.519 48.757 0zm17.755 18.683S43.06 20.19 41.867 35.178c-.53 6.674 6.17 10.186 6.36 15.038.158 3.967-3.974 7.288-3.974 7.288s7.519-1.433 9.87-7.486c2.61-6.716-5.084-11.255-4.305-16.629.745-5.143 16.695-14.707 16.695-14.707zM29.677 53.33s-21.465-.306-21.465 5.764c0 6.343 28.099 6.816 48.164 2.915 0 0 5.333-3.669 6.758-5.035-13.15 2.683-43.129 2.981-43.129.663 0-2.137 9.672-4.307 9.672-4.307zm41.274 0c-2.103.166-4.372.977-6.426 2.451 4.836-1.043 8.944 1.955 8.944 5.367 0 7.685-11.13 14.906-11.13 14.906s17.225-1.954 17.225-14.575c0-5.73-3.983-8.513-8.613-8.149zM24.51 65.124c-3.296 0-8.215 2.584-8.215 5.035 0 4.927 24.777 8.72 43.129 1.523l-6.36-3.908c-12.439 3.983-35.345 2.683-28.554-2.65zm3.047 11.064c-4.513 0-7.486 2.724-7.486 4.77 0 6.326 26.956 6.964 37.63.53l-6.757-4.307c-7.975 3.37-27.99 3.884-23.387-.993zM12.52 81.885C5.165 81.735.395 85.04.395 87.781c0 14.575 75.26 13.904 75.26-.994 0-2.476-2.857-3.676-3.909-4.24 6.153 14.244-61.612 13.11-61.612 4.704 0-1.913 4.985-3.743 9.606-2.849l-3.909-2.252a26.17 26.17 0 00-3.312-.265zm71.086 9.805c-11.445 10.848-40.446 14.782-69.629 8.082 29.175 11.942 69.488 5.243 69.629-8.082z" fill="#6C757D"/></svg><svg fill="none" viewBox="0 0 98 98" id="js" xmlns="http://www.w3.org/2000/svg"><path d="M87.508 0h-76.94C4.776 0 .076 4.7.076 10.492v76.94c0 5.792 4.7 10.492 10.492 10.492h76.94c5.793 0 10.492-4.7 10.492-10.492v-76.94C98 4.699 93.3 0 87.508 0zM53.366 76.372c0 9.53-5.596 13.88-13.749 13.88-7.366 0-11.628-3.803-13.814-8.416l7.497-4.524c1.443 2.557 2.754 4.721 5.924 4.721 3.016 0 4.94-1.18 4.94-5.792V44.96h9.202v31.41zm21.77 13.88c-8.546 0-14.076-4.066-16.765-9.4l7.498-4.327c1.967 3.213 4.546 5.596 9.07 5.596 3.804 0 6.252-1.902 6.252-4.547 0-3.147-2.492-4.262-6.71-6.12l-2.295-.984c-6.645-2.82-11.039-6.382-11.039-13.88 0-6.907 5.268-12.153 13.465-12.153 5.858 0 10.055 2.033 13.071 7.367l-7.17 4.59c-1.573-2.82-3.278-3.935-5.923-3.935-2.689 0-4.393 1.705-4.393 3.935 0 2.754 1.704 3.869 5.66 5.595l2.296.984c7.825 3.344 12.218 6.776 12.218 14.47 0 8.262-6.513 12.809-15.234 12.809z" fill="#6C757D"/></svg><svg fill="none" viewBox="0 0 70 85" id="linux" xmlns="http://www.w3.org/2000/svg"><path d="M67.083 65.333c-.416-.833-.833-1.666-.833-2.5 0-1.666-.833-2.916-2.083-4.166-.417-.417-1.25-.834-1.667-.834 2.5-7.5-1.25-15-5.417-20.416-3.333-5-8.333-8.75-7.916-15.417 0-7.917.833-22.5-13.75-21.25-15 .833-10.834 16.25-11.25 21.667 0 4.583-2.084 9.166-5.417 12.916-.833.834-1.667 2.084-2.083 2.917-4.167 5-6.25 11.667-6.25 17.917-.834.833-1.667 1.666-2.084 2.5-.416.416-.833.833-.833 1.25-.417.416-1.25.833-2.083 1.25-1.667.416-2.917 1.25-3.75 2.916C1.25 65.333.833 67 1.25 68.667c.417.833.417 1.666 0 2.916-.833 1.667-.833 3.75 0 5.834 1.25 1.666 3.333 2.083 6.25 2.5 2.083 0 4.583.833 6.667 1.666 2.083 1.25 4.583 2.084 7.083 2.084 1.25 0 2.917-.417 4.167-.834 1.25-.833 2.083-1.666 2.5-2.916 1.666 0 4.166-.834 7.083-.834 2.5 0 5 .834 8.333.417 0 .417 0 .833.417 1.25.833 2.083 2.917 3.75 5.417 4.167H50c3.333-.417 6.667-2.084 8.75-4.584 1.667-1.666 3.75-2.916 5.833-3.75 2.5-1.25 4.167-2.083 4.584-4.166.416-2.917-.417-4.584-2.084-7.084zM38.333 12c2.5.417 4.584 2.5 4.167 5 0 1.25-.417 2.5-1.25 3.75h-.417c-.833-.417-1.25-.417-1.666-.833.416-.417.416-1.25.833-2.084 0-1.666-.833-2.916-1.667-2.916-1.25 0-2.083 1.25-2.083 2.916v.417c-.417-.417-1.25-.417-1.667-.833V17c-.416-2.083 1.25-4.583 3.75-5zm-1.25 8.333c.417.417 1.25.834 1.667.834.417 0 1.25.416 1.667.833.833.417 1.666.833 1.666 2.083 0 1.25-1.25 2.5-3.75 3.334-.833.416-1.25.416-1.666.833-1.25.833-2.5 1.25-4.167 1.25-1.25 0-2.5-.833-3.333-1.667-.417-.416-.834-.833-1.667-1.25-.417-.416-1.25-1.25-1.667-2.5 0-.416.417-.833.834-1.25 1.25-.833 1.666-1.25 2.083-1.666l.417-.417c.833-1.25 2.5-2.083 4.166-2.083 1.25.416 2.5.833 3.75 1.666zm-8.75-7.5c1.667 0 2.917 1.667 3.334 4.584v.833c-.417 0-1.25.417-1.667.833v-.833c0-1.25-.833-2.5-1.667-2.083-.833 0-1.25 1.25-1.25 2.5 0 .833.417 1.25.834 1.666 0 0-.417.417-.834.417-.833-.833-1.666-2.083-1.666-3.333 0-2.5 1.25-4.584 2.916-4.584zm-4.166 67.084c-2.917 1.25-6.667.833-9.167-.834-2.5-1.25-4.583-1.666-7.5-1.666C5.417 77 3.333 77 2.917 76.167 2.5 75.333 2.5 74.083 3.333 72c.417-1.25.417-2.5 0-3.75-.416-1.25-.416-2.083 0-3.333.417-1.25 1.25-1.667 2.5-2.084 1.25-.416 2.084-.833 2.917-1.666.417-.417.833-.834 1.25-1.667 1.25-1.667 2.083-2.5 3.333-2.5 2.5.417 4.584 4.167 6.25 7.917.834 1.25 1.667 2.916 2.917 4.166 1.667 2.084 3.75 5 3.75 6.667 0 2.083-.833 3.333-2.083 4.167zm20.416-9.167c0 .417 0 .417-.416.833-5 3.75-11.667 4.167-17.084 1.25l-2.5-3.75c3.75-.416 2.917-5.416-5-10.416-8.333-5.417-2.5-15.417.417-20 .417-.417.417 0-1.25 3.333-1.25 2.5-3.75 8.75-.417 13.333 0-3.333.834-6.666 2.084-10 2.916-5.416 5-11.666 6.25-17.916.416.416.416.416.833.416.417.417.833.834 1.25.834.833 1.25 2.5 1.666 3.75 1.666h.417c1.666 0 3.333-.416 4.583-1.666.417-.417.833-.834 1.667-.834 1.25-.416 2.5-1.25 3.75-2.5 1.666 5.417 3.333 10.417 5.833 15C50.417 43.667 51.667 47 52.5 50.75c1.25 0 2.917.417 4.167 1.25 3.333 1.667 4.583 2.917 4.166 5H60c0-1.25-.833-2.5-3.75-3.75S50.833 52 50 54.917c-.417 0-.833.416-1.25.416C45.417 57 45.417 61.583 45 66.167c.417 1.666 0 2.916-.417 4.583zm19.167 2.5c-2.5.833-4.583 2.5-6.25 4.583-1.667 2.5-4.583 4.167-7.917 3.75-1.666 0-3.333-1.25-3.75-2.916-.416-2.5-.416-5 .834-7.5.416-1.667.833-2.917 1.25-4.584.416-5 .416-7.916 2.5-9.166 0 2.083 1.25 3.333 2.916 4.166 2.084 0 4.167-.416 5.834-2.083H60c1.25 0 2.083 0 2.917.833.833.834 1.25 2.084 1.25 2.917 0 1.25.833 2.5 1.25 3.75 2.083 2.083 2.083 3.333 2.083 3.75-.417.833-2.083 1.667-3.75 2.5zm-37.5-50c-.417 0-.417 0-.417.417 0 0 0 .416.417.416s.417.417.417.417C27.917 26.167 30 27 32.5 27.417c2.083-.417 4.167-.834 6.25-2.5l2.5-1.25c.417 0 .417-.417.417-.417 0-.417 0-.417-.417-.417-.833.417-2.083.834-2.917 1.25-1.666 1.25-3.75 2.084-5.833 2.084s-3.75-1.25-5-2.5c-.417 0-.833-.417-1.25-.417z" fill="#6C757D"/></svg><svg fill="none" viewBox="0 0 73 89" id="macos" xmlns="http://www.w3.org/2000/svg"><path d="M70.239 30.33a19.919 19.919 0 00-9.518 16.754 19.385 19.385 0 0011.797 17.78 46.316 46.316 0 01-6.04 12.48C62.715 82.76 58.783 88.172 52.8 88.172c-5.983 0-7.522-3.476-14.418-3.476-6.725 0-9.118 3.59-14.59 3.59-5.47 0-9.288-5.015-13.676-11.17A53.987 53.987 0 01.94 47.997c0-17.097 11.113-26.158 22.055-26.158 5.813 0 10.657 3.818 14.304 3.818 3.477 0 8.89-4.046 15.501-4.046a20.735 20.735 0 0117.439 8.72zM49.666 14.372a19.652 19.652 0 004.673-12.25 8.47 8.47 0 00-.171-1.766A19.691 19.691 0 0041.23 7.025a19.108 19.108 0 00-4.844 11.91 7.83 7.83 0 00.171 1.596c.395.075.795.113 1.197.114a17.068 17.068 0 0011.91-6.272z" fill="#6C757D"/></svg><svg fill="none" viewBox="0 0 15 9" id="open" xmlns="http://www.w3.org/2000/svg"><path d="M14.032.882a1.384 1.384 0 00-.965-.39c-.362 0-.71.14-.966.39l-4.916 4.75L2.336.882a1.384 1.384 0 00-.965-.39c-.362 0-.71.14-.966.39A1.34 1.34 0 000 1.835a1.318 1.318 0 00.405.953l5.807 5.688a1.372 1.372 0 00.973.397 1.394 1.394 0 00.972-.397l5.875-5.688a1.343 1.343 0 00.405-.953 1.319 1.319 0 00-.405-.953z" fill="#FEF5F6"/></svg><svg fill="none" viewBox="0 0 134 68" id="php" xmlns="http://www.w3.org/2000/svg"><path d="M67 .136C30.097.136.178 15.298.178 34 .178 52.702 30.097 67.864 67 67.864c36.903 0 66.822-15.162 66.822-33.864C133.822 15.298 103.903.136 67 .136zM49.613 40.598c-1.595 1.491-3.366 2.107-5.316 2.742-1.95.635-4.432.504-7.45.504h-6.839L28.113 54.78h-7.986l7.126-37.187H42.61c4.62 0 7.99 1.329 10.109 3.754 2.118 2.424 2.755 5.866 1.91 10.212-.348 1.79-.936 3.455-1.765 4.938a16.538 16.538 0 01-3.25 4.1zm23.309 3.246l3.15-15.772c.36-1.846.228-3.218-.394-3.888-.624-.672-1.95-1.121-3.976-1.121h-6.333l-4.08 20.78h-7.924L60.491 7.75h7.923l-1.894 9.844h7.058c4.441 0 7.504.891 9.19 2.44 1.685 1.549 2.19 3.67 1.516 7.14l-3.315 16.67h-8.047zm44.033-12.226c-.348 1.79-.936 3.427-1.764 4.909-.829 1.484-1.912 2.841-3.25 4.07-1.595 1.492-3.366 2.108-5.316 2.743-1.949.635-4.433.504-7.45.504h-6.84L90.442 54.78h-7.985l7.124-37.187h15.358c4.62 0 7.99 1.329 10.107 3.754 2.117 2.424 2.754 5.925 1.91 10.27zm-15.044-8.555h-5.47L93.46 38.375h4.858c3.218 0 5.618-.317 7.193-1.531 1.577-1.212 2.639-3.093 3.191-5.93.53-2.724.289-4.85-.721-5.97-1.012-1.12-3.035-1.881-6.069-1.881zm-62.327 0h-5.47L31.13 38.375h4.857c3.219 0 5.617-.317 7.193-1.531 1.577-1.212 2.64-3.093 3.19-5.93.53-2.724.29-4.85-.721-5.97-1.01-1.12-3.032-1.881-6.066-1.881z" fill="#6C757D"/></svg><svg fill="none" viewBox="0 0 86 96" id="prolog" xmlns="http://www.w3.org/2000/svg"><path d="M26.324 33.095a1.437 1.437 0 11-2.873 0 1.437 1.437 0 012.873 0zm.675-6.847a8.456 8.456 0 100 16.911 8.456 8.456 0 000-16.911zm.21 13.78a5.117 5.117 0 110-10.233 5.117 5.117 0 010 10.234zm36.401-5.493a1.435 1.435 0 10.003-2.87 1.435 1.435 0 00-.003 2.87zm2.621 8.963a8.461 8.461 0 006.094-14.505 8.46 8.46 0 10-6.094 14.505zm-.296-13.613a5.117 5.117 0 110 10.234 5.117 5.117 0 010-10.234zM85.487 46.15c0-11.595-4.65-22.099-12.176-29.764-1.399-4.267-1.237-10.166.536-12.851.62-.938 1.28-1.845 1.988-2.865-6.296-1.073-11.651.731-15.24 5.224-.435.547-.84.87-1.264 1.027A42.35 42.35 0 0043 3.661a42.338 42.338 0 00-16.387 3.282c-.447-.15-.87-.477-1.328-1.05-3.585-4.49-8.94-6.297-15.24-5.224.709 1.02 1.369 1.927 1.988 2.865 1.8 2.726 1.938 8.76.476 13.039A42.337 42.337 0 00.513 46.149a42.363 42.363 0 002.86 15.345c.462 1.305.886 2.625 1.317 3.941.394 1.204.773 2.396 1.121 3.593C6.84 72.553 7.47 76.194 7.57 79.865c.03 1.005.011 2.01-.015 3.011l-.034 1.035 8.607-7.875c1.56 1.44 3.682 2.738 6.24 3.844a10.01 10.01 0 00-1.077 15.555 6.975 6.975 0 1113.241.334 9.997 9.997 0 002.43-12.345c4.02.418 8.07.483 12.102.195a9.98 9.98 0 002.16 11.812 6.975 6.975 0 1113.241.334 9.996 9.996 0 003.585-7.676 9.988 9.988 0 00-3.555-7.65c2.647-1.013 4.901-2.22 6.641-3.57l7.44 6.806c-.015-.345-.026-.69-.033-1.035a53.795 53.795 0 01-.016-3.011c.105-3.671.736-7.313 1.76-10.838a116.14 116.14 0 011.12-3.596c.454-1.384.897-2.779 1.388-4.151a42.351 42.351 0 002.696-14.906l-.004.01zM5.451 58.82l-1.593-4.77 2.115 1.946 3.28-1.158-3.802 3.982zm.818 3.413l2.115 1.946 3.281-1.159-3.802 3.983-1.594-4.77zm5.197-7.103l1.965 2.1 3.357-.911-4.092 3.686-1.23-4.875zM9.891 75.31l-1.593-4.77 2.114 1.946 3.282-1.159L9.89 75.31zm5.265-6.784l-1.594-4.77 2.116 1.946 3.28-1.158-3.802 3.982zM18.76 56.59l1.965 2.1 3.356-.911-4.091 3.686-1.23-4.875zm24.367 6.979c-.843-1.257-1.548-2.67-2.205-3.945a952.723 952.723 0 00-2.272-4.373c-1.455-2.782-3.615-5.614-4.339-8.756a16.827 16.827 0 11-3.678-28.395c.956.405 1.87.896 2.737 1.466a16.717 16.717 0 017.043 16.181 9.038 9.038 0 015.82.143c-.15-.9-.227-1.81-.23-2.723 0-1.455.196-2.865.544-4.21l.057-.2a18.26 18.26 0 01.555-1.69l.108-.278a16.827 16.827 0 114.755 19.23c-.352 1.676-1.203 3.1-2.05 4.695a1088.307 1088.307 0 00-3.44 6.55l-3.404 6.305zM74.751 55.7l-1.23 4.875-4.091-3.686 3.356.907 1.965-2.096zm-12.615 2.648l3.357.91 1.965-2.1-1.23 4.876-4.092-3.686zm8.929 10.747l-3.802-3.982 3.28 1.158 2.116-1.946-1.594 4.77zm5.261 6.784l-3.802-3.983 3.281 1.16 2.115-1.947-1.594 4.77zm2.029-8.306l-3.803-3.983 3.282 1.159 2.115-1.946-1.594 4.77zm2.411-8.18l-3.802-3.982 3.281 1.16 2.115-1.947-1.594 4.77zm-37.661-22.38a7.882 7.882 0 00-7.883 7.887c0 3.476 2.453 6.484 3.99 9.428l1.977 3.802c.57 1.106 1.185 2.336 1.92 3.428l2.959-5.48c.993-1.9 1.983-3.802 2.988-5.695.96-1.808 1.935-3.364 1.935-5.487a7.887 7.887 0 00-4.868-7.286 7.883 7.883 0 00-3.018-.596z" fill="#6C757D"/></svg><svg fill="none" viewBox="0 0 100 100" id="ps" xmlns="http://www.w3.org/2000/svg"><path d="M12.94.586c-.58.086-1.612.387-2.256.645C5.592 3.25 2.52 6.494.779 11.65l-.515 1.503v73.692l.515 1.504c.946 2.814 2.106 4.748 3.975 6.638 1.805 1.805 3.309 2.75 6.295 3.953l1.46.58h37.276c42.174 0 37.684.194 41.572-1.804 3.524-1.805 6.102-4.899 7.67-9.26l.495-1.396V12.94l-.495-1.397c-1.01-2.814-2.191-4.748-4.017-6.553-1.783-1.783-3.33-2.75-6.274-3.931l-1.46-.58L50.644.457C30.492.436 13.54.5 12.938.586zm22.107 22.236c8.185 1.225 14.05 6.037 16.07 13.149.623 2.213.688 6.746.108 8.873-1.247 4.619-4.448 8.422-8.809 10.506-4.018 1.912-6.896 2.384-14.48 2.384h-5.65v18.692H9.18V22.5h11.88c9.432 0 12.29.064 13.987.322zm44.15 13.3c4.813 1.224 8.38 3.737 10.184 7.153.795 1.547 1.418 3.782 1.44 5.157v.709H78.143v-.494c0-1.72-1.332-3.567-2.9-3.997-4.19-1.16-7.906 1.848-5.972 4.834.665 1.032 2.728 1.805 7.347 2.793 5.328 1.096 8.53 2.45 10.807 4.555 3.61 3.352 4.361 9.56 1.654 13.664-1.547 2.32-4.812 4.62-8.142 5.715-3.588 1.182-9.626 1.397-13.149.451-5.629-1.482-9.625-4.683-11.516-9.174-.494-1.16-.988-3.845-.795-4.19.087-.107 2.536-.193 6.038-.193h5.886v.56c0 1.89 1.31 3.63 3.245 4.296 1.783.602 4.533.537 5.886-.129 2.664-1.353 2.686-3.996.022-5.328-.559-.28-2.88-.988-5.157-1.547-4.468-1.139-5.629-1.525-8.12-2.836-9.626-5.006-8.487-17.059 1.976-21.226 2.535-1.01 4.533-1.29 8.701-1.204 2.578.065 4.318.194 5.242.43z" fill="#6C757D"/><path d="M22.285 40.117v7.778l5.436-.086c4.984-.086 5.5-.13 6.617-.559 1.568-.623 3.008-2.105 3.523-3.674.58-1.74.387-5.306-.365-6.918-.773-1.697-1.869-2.814-3.437-3.545l-1.354-.623-5.2-.064-5.22-.086v7.777z" fill="#6C757D"/></svg><svg fill="none" viewBox="0 0 86 86" id="python" xmlns="http://www.w3.org/2000/svg"><path d="M84.426 32.377c-1.478-5.915-4.28-10.374-10.251-10.374h-7.698v9.072c0 7.044-5.99 12.978-12.823 12.978H33.152c-5.605 0-10.25 4.785-10.25 10.393v19.485c0 5.551 4.837 8.805 10.25 10.394 6.489 1.894 12.727 2.24 20.502 0 5.164-1.493 10.25-4.498 10.25-10.394v-7.79H43.423v-2.603h30.753c5.97 0 8.178-4.154 10.25-10.374 2.15-6.412 2.055-12.576 0-20.787zM54.94 71.328c2.131 0 3.859 1.742 3.859 3.886 0 2.163-1.728 3.904-3.859 3.904-2.111 0-3.858-1.76-3.858-3.904.019-2.163 1.747-3.886 3.858-3.886zm-22.728-29.84h20.501c5.702 0 10.251-4.69 10.251-10.393V11.59c0-5.55-4.684-9.704-10.25-10.642-6.873-1.13-14.34-1.072-20.502.02-8.677 1.53-10.251 4.727-10.251 10.641v7.79h20.52v2.604H14.264c-5.97 0-11.192 3.579-12.823 10.374-1.882 7.79-1.958 12.652 0 20.787 1.459 6.048 4.933 10.374 10.903 10.374h7.045v-9.34c0-6.757 5.855-12.71 12.824-12.71zm-1.287-27.295c-2.13 0-3.858-1.741-3.858-3.885.02-2.163 1.728-3.905 3.858-3.905 2.112 0 3.859 1.761 3.859 3.905s-1.728 3.885-3.859 3.885z" fill="#6C757D"/></svg><svg fill="none" viewBox="0 0 86 102" id="scc3" xmlns="http://www.w3.org/2000/svg"><path d="M0 .23l7.816 89.435L43 101.46l35.184-11.795L86 .23H0zm70.121 18.077l-1.075 10.688-25.822 11.14-.067.023h24.971l-2.867 33.125-21.992 6.485-22.127-6.598-1.434-16.698H30.66l.717 8.654 11.78 3.005 12.25-3.48.829-13.919-37.244-.113v-.022l-.045.022-.806-10.462 25.105-10.552 1.456-.61H17.178l-1.3-10.688h54.243z" fill="#6C757D"/></svg><svg fill="none" viewBox="0 0 19 14" id="sheck" xmlns="http://www.w3.org/2000/svg"><path d="M18.601.529c.53.537.53 1.41 0 1.946l-10.857 11a1.347 1.347 0 01-1.921 0l-5.429-5.5a1.39 1.39 0 010-1.946 1.347 1.347 0 011.922 0l4.47 4.524L16.684.53a1.347 1.347 0 011.922 0H18.6z" fill="#6C757D"/></svg><svg fill="none" viewBox="0 0 86 99" id="sql" xmlns="http://www.w3.org/2000/svg"><path d="M86 15.357v9.214c0 8.485-19.254 15.358-43 15.358S0 33.056 0 24.57v-9.214C0 6.872 19.254 0 43 0s43 6.872 43 15.357zM75.48 41.215c3.993-1.42 7.66-3.245 10.52-5.49v19.56c0 8.486-19.254 15.358-43 15.358S0 63.77 0 55.286V35.725c2.86 2.265 6.527 4.07 10.52 5.49C19.139 44.286 30.618 46.07 43 46.07c12.382 0 23.861-1.785 32.48-4.856zM0 66.439c2.86 2.265 6.527 4.07 10.52 5.49C19.139 75 30.618 76.786 43 76.786c12.382 0 23.861-1.786 32.48-4.857 3.993-1.42 7.66-3.244 10.52-5.49v16.49c0 8.484-19.254 15.357-43 15.357S0 91.413 0 82.929v-16.49z" fill="#6C757D"/></svg><svg fill="none" viewBox="0 0 100 100" id="vhdl" xmlns="http://www.w3.org/2000/svg"><path d="M29.727 6.973l.058 6.992 2.89.058 2.872.059V0h-5.86l.04 6.973zM41.445 6.973l.059 6.992 2.89.058 2.872.059V0h-5.86l.04 6.973zM53.125 7.031v7.032h5.86V0h-5.86v7.031zM64.844 7.031v7.032h5.86V0h-5.86v7.031zM24.512 16.797c-4.2.879-7.051 4.023-7.54 8.32-.117 1.113-.175 10.684-.136 25.88.059 24.062.059 24.1.469 25.312 1.074 3.125 3.75 5.605 6.777 6.308.508.117 10.352.195 25.918.195 20.86 0 25.273-.058 26.113-.273 3.086-.82 5.508-3.105 6.582-6.23.41-1.211.41-1.27.47-25.313.038-15.176-.02-24.746-.138-25.86-.43-3.75-2.578-6.581-6.054-7.929l-1.29-.508-25.195-.039c-13.867 0-25.547.059-25.976.137zm3.398 5.664c1.758.898 2.188 3.223.88 4.687-1.31 1.446-3.028 1.524-4.434.215-.723-.683-.801-.84-.88-1.933-.078-.977 0-1.309.352-1.895.84-1.348 2.617-1.836 4.082-1.074zm38.106 26.562v15.625h-31.25v-31.25h31.25v15.625zM0 32.227v2.93h14.258v-5.86H0v2.93zM85.742 32.227v2.93H100v-5.86H85.742v2.93zM0 43.945v2.93h14.258v-5.86H0v2.93zM85.742 43.945v2.93H100v-5.86H85.742v2.93zM0 55.664v2.93h14.258v-5.86H0v2.93zM85.742 55.664v2.93H100v-5.86H85.742v2.93zM0 67.383v2.93h14.258v-5.86H0v2.93zM85.742 67.383v2.93H100v-5.86H85.742v2.93zM29.824 86.074c-.078.059-.137 3.223-.137 7.032V100h5.86V85.938h-2.793c-1.543 0-2.871.058-2.93.136zM41.543 86.074c-.078.059-.137 3.223-.137 7.032V100h5.86V85.938h-2.793c-1.543 0-2.871.058-2.93.136zM53.125 92.969V100h5.86V85.938h-5.86v7.03zM64.844 92.969V100h5.86V85.938h-5.86v7.03z" fill="#6C757D"/></svg><svg fill="none" viewBox="0 0 32 32" id="vk" xmlns="http://www.w3.org/2000/svg"><path d="M5.063.25C2.42.25.25 2.42.25 5.063v21.875c0 2.642 2.17 4.812 4.813 4.812h21.875c2.642 0 4.812-2.17 4.812-4.813V5.063C31.75 2.42 29.58.25 26.937.25H5.063zm0 2.625h21.875c1.223 0 2.187.964 2.187 2.188v21.875a2.168 2.168 0 01-2.188 2.187H5.063a2.168 2.168 0 01-2.187-2.188V5.063c0-1.223.964-2.187 2.188-2.187zm2.026 7.11c-.611 0-.714.3-.714.62 0 .578.482 3.704 3.109 7.299 1.905 2.606 4.414 4.11 6.636 4.11 1.345 0 1.483-.341 1.483-.877v-2.384c0-.642.148-.748.576-.748.305 0 .928.2 2.131 1.603 1.388 1.618 1.64 2.406 2.435 2.406h2.1c.488 0 .767-.204.778-.6.003-.1-.012-.214-.044-.34-.156-.462-.869-1.593-1.759-2.67-.493-.595-.98-1.185-1.204-1.505-.15-.21-.207-.358-.2-.5.006-.148.084-.288.2-.484-.02 0 2.693-3.812 2.958-5.097.036-.12.054-.233.05-.333-.013-.29-.211-.5-.68-.5h-2.101c-.53 0-.774.32-.918.642 0 0-1.31 2.694-2.818 4.47-.49.515-.738.501-1.003.501-.142 0-.501-.171-.501-.642v-4.158c0-.557-.138-.814-.586-.814h-3.73c-.326 0-.495.257-.495.515 0 .534.721.663.803 2.162v2.907c0 .706-.122.832-.388.832-.714 0-2.12-2.406-3.06-5.56-.204-.62-.408-.856-.938-.856h-2.12z" fill="#fff"/></svg><svg fill="none" viewBox="0 0 76 76" id="windows" xmlns="http://www.w3.org/2000/svg"><path d="M2.583.5h31.25c1.15 0 2.084.933 2.084 2.083v31.25c0 1.15-.934 2.084-2.084 2.084H2.583A2.084 2.084 0 01.5 33.833V2.583C.5 1.433 1.433.5 2.583.5zM40.17 33.746V2.583c0-1.15.934-2.083 2.084-2.083h31.163c1.15 0 2.083.933 2.083 2.083v31.163c0 1.15-.933 2.083-2.083 2.083H42.254a2.082 2.082 0 01-2.083-2.083zM2.583 40.083h31.25c1.15 0 2.084.934 2.084 2.084v31.25c0 1.15-.934 2.083-2.084 2.083H2.583A2.084 2.084 0 01.5 73.417v-31.25c0-1.15.933-2.084 2.083-2.084zM40.083 73.417v-31.25c0-1.15.934-2.084 2.084-2.084h31.25c1.15 0 2.083.934 2.083 2.084v31.25c0 1.15-.933 2.083-2.083 2.083h-31.25a2.084 2.084 0 01-2.084-2.083z" fill="#6C757D"/></svg></svg>